<?xml version="1.0" standalone="no"?>
<!DOCTYPE svg PUBLIC "-//W3C//DTD SVG 20010904//EN"
 "http://www.w3.org/TR/2001/REC-SVG-20010904/DTD/svg10.dtd">
<svg version="1.0" xmlns="http://www.w3.org/2000/svg"
 width="550.000000pt" height="550.000000pt" viewBox="0 0 550.000000 550.000000"
 preserveAspectRatio="xMidYMid meet">
<metadata>
Created by potrace 1.14, written by Peter Selinger 2001-2017
</metadata>
<g transform="translate(0.000000,550.000000) scale(0.100000,-0.100000)"
fill="#000000" stroke="none">
<path d="M2705 5197 c-66 -35 -80 -46 -81 -67 -1 -14 -2 -37 -3 -51 -2 -37
-40 -44 -71 -12 -12 12 -27 23 -34 23 -6 0 -47 -20 -91 -44 l-80 -44 0 -136 0
-136 -37 -25 c-41 -28 -41 -28 -38 -140 1 -42 6 -64 17 -72 13 -10 17 -34 18
-110 2 -54 0 -101 -2 -106 -2 -4 -16 2 -30 13 -37 29 -58 25 -148 -24 l-80
-44 -3 -106 c-3 -100 -4 -107 -27 -122 -17 -11 -25 -26 -25 -44 0 -15 -9 -35
-20 -45 -19 -17 -21 -17 -38 -2 -25 23 -33 22 -93 -12 -52 -29 -73 -58 -63
-85 3 -8 -4 -19 -16 -26 -17 -9 -25 -8 -39 4 -10 9 -23 16 -30 16 -9 0 -60
-24 -100 -47 -2 -2 -5 -19 -6 -39 -3 -43 -23 -59 -46 -38 -17 15 -40 17 -88 8
-27 -6 -32 -11 -29 -32 4 -34 -22 -50 -57 -34 -14 7 -23 17 -20 22 14 23 -17
40 -72 40 -51 0 -64 5 -185 81 l-131 81 -103 -53 c-57 -30 -105 -58 -106 -64
0 -5 -2 -23 -2 -40 -1 -26 -7 -31 -50 -47 -27 -9 -54 -22 -59 -27 -7 -7 -21
-4 -44 10 l-33 21 -67 -37 c-37 -20 -73 -44 -80 -53 -7 -10 -13 -46 -13 -84 0
-54 4 -72 19 -87 19 -19 20 -43 23 -783 2 -554 0 -762 -8 -761 -6 1 -10 -9 -8
-22 1 -14 -3 -26 -9 -26 -7 -1 -19 -3 -27 -4 -8 -1 -21 -3 -29 -4 -22 -2 19
-30 44 -31 18 -1 19 -1 3 -11 -20 -11 -24 -29 -7 -29 5 0 8 4 5 8 -3 5 1 9 10
9 10 0 12 -7 8 -20 -5 -16 -3 -19 14 -14 12 3 26 -1 33 -9 6 -8 15 -11 20 -8
5 3 6 -2 3 -10 -6 -15 6 -21 30 -17 5 1 6 -5 3 -13 -8 -20 4 -28 21 -13 13 9
14 9 8 0 -4 -7 -2 -13 3 -13 6 0 11 5 11 12 0 6 3 8 7 5 3 -4 -2 -15 -11 -26
-13 -14 -14 -21 -5 -27 7 -4 10 -3 5 4 -7 12 32 38 42 28 3 -3 0 -6 -6 -6 -14
0 -16 -26 -3 -35 5 -3 13 0 17 6 4 8 3 9 -4 5 -7 -4 -12 -2 -12 3 0 6 7 11 16
11 11 0 15 -6 12 -17 -4 -13 2 -19 19 -20 45 -4 53 -6 53 -16 0 -5 7 -7 15 -3
9 3 15 0 15 -9 0 -8 5 -15 11 -15 5 0 7 6 3 13 -9 15 24 -10 45 -33 11 -13 12
-12 7 10 -3 14 -3 20 0 13 3 -7 12 -9 20 -6 8 3 14 0 14 -7 0 -6 4 -9 8 -6 4
2 14 0 22 -5 12 -7 11 -8 -5 -6 -11 1 -25 6 -31 9 -6 4 -11 1 -11 -6 0 -14 45
-16 65 -3 8 5 12 3 12 -7 0 -8 5 -18 12 -22 7 -4 8 -3 4 4 -11 19 3 35 19 22
8 -7 20 -8 26 -4 7 4 9 3 6 -3 -4 -6 0 -14 9 -17 8 -3 12 -2 9 4 -10 15 3 12
25 -8 11 -9 22 -15 24 -12 2 3 13 -4 25 -14 12 -11 21 -15 21 -10 0 5 5 2 10
-6 8 -12 10 -12 10 -1 0 11 5 10 20 -4 11 -10 20 -14 20 -9 0 5 10 -2 21 -16
l20 -25 -11 24 c-11 21 -10 23 3 18 9 -3 18 -1 21 6 2 7 5 5 5 -4 1 -9 8 -20
17 -23 8 -3 12 -11 8 -17 -4 -7 0 -9 14 -5 22 7 56 -19 47 -35 -4 -5 -2 -9 3
-9 6 0 12 7 16 15 3 10 -5 20 -24 30 -35 18 -35 18 -13 36 9 8 14 9 10 2 -8
-13 18 -43 39 -43 17 0 18 -12 2 -29 -11 -11 -9 -11 10 -1 22 11 23 10 17 -9
-7 -22 9 -29 21 -9 5 7 2 8 -7 3 -8 -5 -10 -4 -6 0 14 16 33 13 33 -6 0 -11
-6 -19 -13 -19 -7 0 -13 -5 -13 -10 0 -7 6 -7 20 0 11 6 20 8 20 4 0 -3 8 0
17 7 11 10 14 10 9 2 -4 -8 -1 -13 9 -13 10 0 13 -5 9 -12 -4 -7 3 -4 16 7
l23 20 -11 -22 c-10 -17 -8 -25 9 -45 l20 -23 -17 28 c-14 24 -14 27 -1 27 9
0 17 -7 19 -16 2 -10 15 -18 30 -20 21 -2 26 1 21 14 -4 13 -2 12 10 -3 11
-14 12 -24 5 -32 -8 -10 -1 -9 24 1 31 13 34 13 34 -3 0 -10 -6 -18 -13 -18
-7 0 -10 4 -7 9 3 4 1 8 -5 8 -14 0 -25 -20 -12 -21 36 -4 72 -20 66 -29 -3
-5 -1 -11 5 -15 6 -4 8 -10 5 -15 -3 -5 0 -12 6 -16 8 -4 9 -3 5 4 -4 7 -4 12
1 12 13 -1 43 -26 37 -32 -2 -3 6 -5 18 -4 14 0 22 -4 21 -11 -2 -7 0 -12 5
-12 19 3 25 -2 12 -11 -9 -6 -10 -10 -3 -10 6 0 15 4 18 10 3 5 11 10 16 10 6
0 8 -4 5 -8 -3 -5 1 -9 9 -9 8 0 13 2 10 5 -2 2 2 11 10 18 15 15 26 18 23 7
-6 -24 15 -53 40 -54 l27 -1 -25 -8 c-21 -7 -22 -8 -5 -9 11 -1 30 -8 42 -16
19 -13 23 -13 37 1 14 14 15 12 10 -18 -6 -30 -5 -31 8 -15 13 18 15 18 39 -2
15 -11 29 -18 33 -16 3 3 4 2 1 -2 -3 -4 5 -13 17 -20 13 -7 18 -12 12 -13 -6
0 -23 9 -37 20 -16 13 -28 17 -32 10 -4 -6 -1 -9 7 -8 7 2 12 -3 11 -9 -2 -7
0 -12 5 -12 17 3 33 -2 29 -9 -3 -4 6 -8 19 -8 13 -1 21 2 18 7 -3 5 2 6 11 2
9 -3 13 -9 8 -12 -15 -10 -9 -30 14 -46 12 -9 20 -22 17 -29 -3 -7 2 -16 11
-20 9 -3 13 -10 10 -16 -3 -5 -2 -10 4 -10 18 0 21 18 3 25 -16 6 -16 7 0 16
18 10 48 2 48 -12 0 -5 -5 -9 -11 -9 -7 0 -8 -7 -4 -17 4 -10 10 -24 13 -32 3
-9 1 -12 -6 -7 -8 5 -10 2 -6 -8 3 -9 10 -16 16 -16 5 0 7 4 3 9 -3 5 0 13 6
17 7 4 9 3 5 -4 -3 -6 -2 -13 4 -17 5 -3 10 2 10 12 0 15 2 16 10 3 6 -9 5
-17 -3 -22 -11 -7 -10 -9 13 -12 11 -1 12 -18 3 -26 -4 -3 -3 0 0 6 3 6 0 11
-8 11 -15 0 -22 -16 -7 -18 4 0 17 -2 28 -3 22 -3 85 -46 66 -46 -6 0 -14 4
-17 10 -12 20 -43 31 -51 18 -4 -7 -4 -10 1 -6 11 11 47 -11 39 -24 -5 -7 -2
-8 6 -3 10 6 12 4 6 -11 -4 -10 -4 -15 0 -11 4 4 13 2 20 -4 9 -7 19 -7 33 1
17 8 20 8 15 -4 -3 -8 -13 -16 -22 -18 -13 -3 -12 -5 6 -10 12 -3 20 -2 17 2
-9 14 15 23 29 11 7 -6 16 -8 19 -4 4 3 7 1 7 -5 0 -7 6 -12 14 -12 7 0 20 -8
27 -17 12 -14 12 -16 0 -8 -10 5 -12 4 -7 -3 4 -7 14 -12 22 -12 8 0 12 5 9
10 -3 6 -1 10 4 10 14 0 14 -13 -1 -28 -9 -9 -9 -12 1 -12 7 0 9 -5 5 -12 -4
-7 -3 -8 5 -4 6 4 9 13 5 19 -3 7 0 5 8 -3 7 -8 20 -16 28 -18 10 -3 9 3 -5
20 -20 23 -20 23 0 8 11 -8 23 -19 27 -25 5 -6 8 -4 8 4 0 8 3 11 6 8 4 -4 1
-14 -7 -24 -9 -11 -10 -14 -1 -9 6 4 12 3 12 -2 0 -5 11 -7 24 -5 13 3 27 -1
31 -8 6 -8 4 -10 -6 -4 -11 6 -12 5 -2 -5 13 -14 56 -22 48 -9 -3 4 6 2 19 -4
13 -7 23 -14 21 -18 -6 -9 64 -31 75 -24 7 4 7 13 -1 28 -9 20 -9 21 4 4 17
-20 39 -19 49 3 6 11 7 10 5 -5 -2 -11 -9 -19 -16 -17 -7 1 -10 -2 -6 -7 8
-14 35 -2 35 14 0 8 5 17 12 21 7 4 8 3 4 -4 -4 -7 -2 -12 3 -12 6 0 11 6 11
13 1 7 6 5 14 -6 11 -14 15 -15 19 -5 5 11 7 11 15 0 8 -11 10 -11 15 1 4 11
-1 14 -18 12 -21 -2 -23 1 -14 16 5 11 12 19 15 19 3 0 2 -4 -1 -10 -3 -5 1
-10 9 -10 9 0 15 3 15 8 -4 25 1 33 15 20 9 -8 11 -17 5 -23 -5 -5 -9 -13 -9
-19 0 -5 6 -1 14 10 11 14 11 22 3 32 -5 7 -6 12 -1 11 22 -4 35 2 28 13 -4 7
-3 8 5 4 9 -6 9 -12 -1 -24 -11 -15 -11 -15 3 -5 9 7 19 9 24 5 4 -4 3 3 -3
14 -6 12 -9 24 -6 27 8 8 34 -3 34 -15 0 -5 -5 -6 -12 -2 -7 4 -8 3 -4 -4 4
-7 9 -12 11 -12 10 0 34 58 27 65 -4 5 -2 5 4 2 7 -4 17 0 24 8 7 8 20 15 29
14 12 0 12 -2 -3 -8 -18 -7 -18 -8 -3 -14 16 -6 22 4 18 27 -1 5 8 19 20 32
17 18 26 21 40 13 13 -7 19 -6 19 1 0 6 4 9 8 6 12 -7 35 10 38 28 1 9 -2 14
-7 10 -5 -3 -6 -10 -3 -16 5 -8 1 -9 -10 -5 -9 4 -15 3 -12 -1 2 -4 -4 -9 -15
-9 -15 -1 -9 6 20 28 23 16 41 35 41 43 0 22 31 28 46 9 13 -17 14 -17 7 1 -5
15 -3 18 9 13 17 -6 19 16 3 30 -4 4 -5 3 -2 -3 12 -21 -20 -23 -49 -2 -16 11
-21 18 -12 15 9 -3 19 -3 21 1 2 4 3 2 1 -4 -1 -6 4 -11 11 -11 7 0 11 6 8 14
-4 9 0 11 13 7 15 -5 16 -4 4 4 -8 6 -17 9 -20 7 -4 -2 -6 11 -6 30 1 19 5 35
9 35 5 0 6 4 2 9 -3 6 2 14 11 19 9 5 16 13 16 18 3 31 12 45 28 41 9 -2 17 1
17 9 0 7 -4 11 -9 8 -4 -3 -5 2 -2 10 3 9 10 13 15 10 5 -3 9 0 9 6 0 6 4 9 9
6 16 -11 40 5 34 21 -4 10 -2 14 5 9 6 -3 14 3 17 15 5 14 2 25 -6 30 -8 5 -9
9 -3 9 5 0 16 -6 23 -12 11 -11 13 -10 9 2 -4 10 7 24 29 39 19 12 32 17 29 9
-4 -7 1 -3 10 9 9 13 22 23 28 23 6 0 17 9 24 21 10 15 16 18 26 10 9 -8 22
-4 46 14 19 14 29 25 23 25 -7 0 -15 -4 -18 -10 -9 -15 -45 -32 -45 -21 0 5
22 20 50 34 27 14 48 22 45 18 -2 -4 2 -8 9 -8 9 0 12 7 8 15 -4 11 -1 14 11
9 10 -4 20 0 26 11 8 13 10 13 11 3 0 -11 4 -10 13 4 9 11 19 15 27 10 10 -6
12 -4 7 7 -8 23 12 39 35 27 10 -5 19 -7 19 -4 1 3 3 10 4 15 1 6 3 14 4 19 1
11 20 9 39 -3 12 -7 12 -4 2 14 -15 28 -5 39 11 12 12 -20 13 -20 30 2 12 15
14 23 6 28 -8 5 -6 8 6 8 10 0 15 5 12 10 -3 6 -1 10 5 10 7 0 9 -8 5 -21 -6
-19 -5 -20 8 -8 8 8 13 16 12 19 -2 3 1 12 7 20 8 12 9 12 4 -2 -3 -10 -1 -20
4 -23 6 -4 10 4 10 17 1 22 1 22 15 4 18 -24 20 -14 4 17 -12 22 -12 22 10 3
22 -20 22 -20 15 0 -7 17 -6 18 11 4 15 -12 17 -12 10 -1 -6 11 -4 13 10 7 15
-5 16 -4 5 9 -11 13 -10 14 6 8 17 -6 18 -5 4 13 -14 19 -14 19 7 1 20 -18 21
-18 35 2 8 12 18 18 21 14 4 -3 2 -12 -4 -19 -7 -8 -7 -14 1 -19 6 -4 9 -1 8
7 -2 7 5 12 14 12 10 -1 14 4 11 12 -3 8 -9 11 -14 8 -5 -3 -9 0 -9 5 0 6 7
11 16 11 9 0 12 5 8 12 -4 6 -3 8 4 4 6 -3 18 1 26 10 9 8 16 11 16 6 0 -5 7
-9 15 -9 9 0 14 6 11 14 -8 20 2 16 13 -6 9 -16 7 -18 -19 -16 -17 1 -30 -1
-30 -5 0 -4 18 -7 40 -7 32 1 37 3 28 14 -9 11 -7 18 7 31 10 9 15 12 11 6
-10 -19 22 -25 39 -8 8 9 15 12 15 7 0 -4 9 -14 21 -21 19 -12 20 -11 14 10
-5 18 -4 20 4 8 10 -13 12 -13 21 0 7 12 10 12 10 1 0 -7 6 -11 14 -8 8 3 22
0 32 -8 10 -7 24 -11 31 -8 7 3 13 0 13 -6 0 -6 -5 -10 -11 -8 -6 1 -14 -5
-16 -13 -3 -9 -1 -11 4 -4 4 6 20 10 36 9 17 -1 27 3 27 12 0 7 4 13 10 13 5
0 9 -3 7 -7 -1 -5 3 -8 8 -8 5 0 9 4 7 8 -1 5 2 6 8 2 6 -4 25 4 43 18 36 27
67 26 45 -1 -12 -15 -11 -16 4 -4 10 8 16 17 15 20 -1 4 2 7 6 7 5 0 13 8 18
17 6 10 15 18 21 18 9 0 9 -3 0 -12 -7 -7 -12 -17 -12 -23 0 -5 5 -2 11 8 6 9
14 15 20 12 5 -4 6 2 2 12 -6 16 -5 16 10 4 16 -12 17 -12 11 5 -4 10 -3 16 1
12 5 -5 14 0 21 10 8 12 24 18 43 17 27 -2 29 0 19 14 -7 9 -8 13 -4 9 5 -4
16 -2 24 5 13 9 14 9 8 0 -4 -8 -2 -13 5 -13 6 0 9 8 6 20 -3 11 -1 18 3 15 5
-3 13 3 19 12 6 11 11 13 11 5 0 -7 5 -10 10 -7 6 4 7 12 3 18 -4 7 1 6 11 -2
9 -8 16 -10 14 -5 -5 15 43 63 58 57 8 -3 14 1 14 9 0 8 7 15 15 15 9 0 12 -5
7 -12 -4 -6 0 -3 9 7 9 9 20 14 25 10 5 -4 3 1 -4 10 -11 14 -10 19 10 29 13
7 25 13 28 12 3 -1 11 6 19 14 11 12 11 14 0 12 -8 -1 -22 1 -32 6 -15 6 -16
10 -5 16 21 14 -11 30 -36 18 -19 -9 -19 -9 -4 4 18 14 8 45 -11 33 -8 -5 -8
0 -2 17 8 21 7 25 -7 22 -9 -1 -21 1 -27 5 -5 5 -12 9 -15 9 -49 12 -47 4 -49
144 -1 73 -3 372 -4 666 l-2 533 36 21 37 21 -2 75 -1 74 -97 58 -96 57 -29
-18 c-26 -16 -31 -16 -49 -3 -10 8 -32 21 -49 28 -25 11 -30 19 -32 55 -1 23
-3 43 -5 44 -2 2 -42 28 -90 59 l-88 56 -124 -74 c-104 -63 -131 -75 -168 -75
-45 0 -88 -21 -88 -44 0 -17 -67 -26 -80 -12 -4 6 -10 24 -12 41 -3 27 -6 30
-43 30 -22 0 -46 4 -53 8 -7 5 -24 0 -42 -13 -27 -19 -31 -20 -59 -6 -27 14
-44 41 -40 62 5 30 -7 46 -58 73 -64 35 -76 37 -93 16 -10 -13 -17 -12 -51 5
-21 11 -40 28 -41 38 0 9 -1 28 -2 42 -1 20 -15 33 -68 65 l-68 40 -1 55 c-1
30 -2 60 -4 65 -1 6 -3 15 -3 21 -3 16 -146 104 -169 104 -11 0 -33 -10 -47
-21 -40 -31 -53 -12 -59 88 -5 78 -4 84 16 94 32 17 33 21 31 106 -1 76 -1 77
-42 112 l-41 36 -4 129 c-3 95 -8 130 -18 137 -33 22 -131 79 -135 79 -3 0
-17 -9 -31 -20 -25 -19 -25 -19 -68 3 -41 20 -44 25 -47 67 -3 45 -4 45 -73
82 -38 21 -74 37 -80 37 -5 0 -46 -19 -90 -42z m2490 -3216 c3 -5 2 -12 -3
-15 -5 -3 -9 1 -9 9 0 17 3 19 12 6z m-500 -460 c3 -5 2 -12 -3 -15 -5 -3 -9
1 -9 9 0 17 3 19 12 6z m-420 -50 c3 -5 0 -13 -6 -17 -7 -4 -9 -3 -5 4 3 5 0
13 -6 15 -9 4 -10 6 -1 6 6 1 14 -3 18 -8z m-3216 -28 c6 -10 11 -12 11 -5 0
17 17 15 17 -2 0 -17 -26 -15 -37 3 -4 8 -13 10 -20 6 -9 -5 -11 -4 -6 3 10
17 23 15 35 -5z m86 -3 c-3 -5 -12 -10 -18 -10 -7 0 -6 4 3 10 19 12 23 12 15
0z m-15 -30 c0 -5 -2 -10 -4 -10 -3 0 -8 5 -11 10 -3 6 -1 10 4 10 6 0 11 -4
11 -10z m100 -32 c0 -6 -6 -5 -15 2 -8 7 -15 14 -15 16 0 2 7 1 15 -2 8 -4 15
-11 15 -16z m2840 -32 c0 -3 -4 -8 -10 -11 -5 -3 -10 -1 -10 4 0 6 5 11 10 11
6 0 10 -2 10 -4z m-2668 -43 c-6 -2 -9 -10 -6 -15 4 -7 2 -8 -5 -4 -13 9 -5
26 12 25 9 0 8 -2 -1 -6z m2569 -10 c13 -16 12 -17 -3 -4 -17 13 -22 21 -14
21 2 0 10 -8 17 -17z m-2464 -65 c-3 -8 -6 -5 -6 6 -1 11 2 17 5 13 3 -3 4
-12 1 -19z m138 -47 c3 -5 2 -12 -3 -15 -5 -3 -9 1 -9 9 0 17 3 19 12 6z m19
-23 c-5 -8 -2 -9 11 -4 14 5 16 4 6 -8 -9 -11 -7 -13 14 -13 22 0 24 2 13 16
-10 14 -10 14 2 3 8 -7 15 -18 15 -25 1 -7 6 -11 13 -10 7 2 9 -4 5 -15 -6
-15 -5 -15 11 -3 15 12 17 12 14 0 -2 -8 3 -13 10 -11 6 1 12 -3 12 -9 0 -6 7
-9 14 -6 10 4 13 1 9 -9 -4 -11 -9 -12 -19 -3 -11 9 -14 8 -14 -2 0 -7 -10 -3
-25 11 -14 13 -25 19 -25 14 0 -5 -7 0 -16 11 -8 11 -16 18 -17 15 -4 -10 -43
25 -41 38 2 19 4 22 10 22 3 0 2 -5 -2 -12z m284 -183 c-3 -3 -9 2 -12 12 -6
14 -5 15 5 6 7 -7 10 -15 7 -18z m210 -146 c11 -17 16 -18 28 -8 12 10 18 9
32 -6 16 -18 16 -18 -1 -6 -15 12 -21 11 -39 -5 -12 -11 -18 -14 -15 -7 4 6
-4 20 -19 32 -15 12 -21 21 -13 21 8 0 20 -9 27 -21z m1222 -48 c0 -5 -8 -15
-17 -22 -16 -12 -17 -12 -6 2 7 9 10 19 6 22 -3 4 -1 7 5 7 7 0 12 -4 12 -9z
m-1136 -37 c3 -8 2 -12 -4 -9 -6 3 -10 10 -10 16 0 14 7 11 14 -7z m143 -159
c0 -17 -13 -20 -21 -6 -4 5 0 12 6 14 7 3 13 6 14 6 0 1 1 -6 1 -14z m743 -91
c0 -8 -5 -12 -10 -9 -6 4 -8 11 -5 16 9 14 15 11 15 -7z m-330 -114 c0 -5 -2
-10 -4 -10 -3 0 -8 5 -11 10 -3 6 -1 10 4 10 6 0 11 -4 11 -10z"/>
<path d="M1716 1107 c3 -10 9 -15 12 -12 3 3 0 11 -7 18 -10 9 -11 8 -5 -6z"/>
<path d="M5269 1954 c-11 -14 -10 -18 6 -31 11 -7 20 -22 20 -31 0 -9 3 -16 8
-14 4 1 12 2 17 2 6 0 2 10 -10 22 -18 20 -25 39 -21 61 2 11 -5 8 -20 -9z"/>
<path d="M405 1810 c-4 -6 -11 -7 -17 -4 -7 4 -8 2 -4 -4 10 -16 23 -15 30 3
6 17 0 20 -9 5z"/>
<path d="M356 1745 c4 -8 11 -15 16 -15 6 0 5 6 -2 15 -7 8 -14 15 -16 15 -2
0 -1 -7 2 -15z"/>
<path d="M5175 1751 c-3 -6 -1 -19 5 -28 9 -15 10 -14 4 7 -6 22 -5 23 9 12
12 -11 17 -11 23 0 4 7 4 10 -1 6 -4 -4 -14 -3 -21 3 -8 7 -14 7 -19 0z"/>
<path d="M5230 1741 c0 -6 4 -13 10 -16 6 -3 7 1 4 9 -7 18 -14 21 -14 7z"/>
<path d="M450 1681 c0 -6 5 -11 11 -11 8 0 7 -5 -1 -15 -11 -13 -10 -14 4 -9
20 8 20 18 1 34 -10 9 -15 9 -15 1z"/>
<path d="M470 1637 c0 -2 6 -10 14 -16 11 -9 16 -9 22 1 4 7 4 10 -1 6 -4 -4
-14 -3 -22 3 -7 6 -13 9 -13 6z"/>
<path d="M4974 1619 c-4 -7 -3 -9 4 -5 5 3 12 0 15 -6 2 -7 7 -10 11 -7 4 3 0
12 -8 18 -11 9 -16 9 -22 0z"/>
<path d="M4563 1515 c-3 -9 -3 -18 -1 -21 3 -3 8 4 11 16 6 23 -1 27 -10 5z"/>
<path d="M4590 1515 c-11 -13 -10 -14 4 -9 9 3 16 10 16 15 0 13 -6 11 -20 -6z"/>
<path d="M4619 1513 c0 -5 -2 -16 -4 -26 -2 -11 -1 -16 3 -13 8 8 14 46 7 46
-3 0 -5 -3 -6 -7z"/>
<path d="M4513 1496 c0 -8 6 -12 14 -9 7 3 10 9 7 14 -8 14 -21 11 -21 -5z"/>
<path d="M4346 1491 c-3 -4 1 -17 10 -27 14 -18 15 -18 5 2 -6 12 -7 24 -4 28
3 3 4 6 0 6 -3 0 -8 -4 -11 -9z"/>
<path d="M4393 1465 c0 -8 4 -12 9 -9 5 3 6 10 3 15 -9 13 -12 11 -12 -6z"/>
<path d="M3936 1272 c-3 -5 1 -9 9 -9 8 0 12 4 9 9 -3 4 -7 8 -9 8 -2 0 -6 -4
-9 -8z"/>
<path d="M1518 1193 c7 -3 16 -2 19 1 4 3 -2 6 -13 5 -11 0 -14 -3 -6 -6z"/>
<path d="M3697 1133 c-10 -9 -9 -23 1 -23 5 0 9 7 9 15 0 17 -1 18 -10 8z"/>
<path d="M3585 1049 c-11 -16 -1 -19 13 -3 7 8 8 14 3 14 -5 0 -13 -5 -16 -11z"/>
<path d="M1827 1031 c-4 -17 -3 -21 5 -13 5 5 8 16 6 23 -3 8 -7 3 -11 -10z"/>
<path d="M1835 1000 c-3 -5 -1 -10 4 -10 6 0 11 5 11 10 0 6 -2 10 -4 10 -3 0
-8 -4 -11 -10z"/>
<path d="M1997 939 c7 -7 15 -10 18 -7 3 3 -2 9 -12 12 -14 6 -15 5 -6 -5z"/>
<path d="M2195 780 c3 -5 8 -10 11 -10 2 0 4 5 4 10 0 6 -5 10 -11 10 -5 0 -7
-4 -4 -10z"/>
<path d="M2235 680 c-3 -5 1 -10 10 -10 9 0 13 5 10 10 -3 6 -8 10 -10 10 -2
0 -7 -4 -10 -10z"/>
<path d="M3361 668 c-16 -26 -14 -31 13 -33 18 -2 18 -1 1 12 -17 12 -14 17 7
14 4 0 5 6 2 14 -8 19 -7 19 -23 -7z"/>
<path d="M3235 570 c-11 -12 -13 -20 -6 -20 7 0 9 -5 5 -12 -4 -7 -3 -8 5 -4
6 4 9 12 6 17 -6 8 9 13 29 10 5 -1 4 5 -4 13 -16 20 -13 20 -35 -4z"/>
<path d="M2430 546 c0 -4 7 -14 15 -22 8 -9 15 -11 15 -6 0 5 -7 15 -15 22 -8
7 -15 9 -15 6z"/>
<path d="M2467 506 c-4 -10 -1 -13 9 -9 15 6 19 23 5 23 -5 0 -11 -7 -14 -14z"/>
<path d="M3162 508 c-7 -7 -12 -17 -12 -22 0 -6 5 -3 11 7 9 15 13 16 27 5 15
-12 16 -11 3 5 -16 20 -14 20 -29 5z"/>
<path d="M2850 346 c0 -2 7 -7 16 -10 8 -3 12 -2 9 4 -6 10 -25 14 -25 6z"/>
</g>
</svg>
